# xmcd
#
# Track frame offsets: 
#        150
#        7942
#        23162
#        44067
#        58509
#        74026
#        77890
#        99178
#        123538
#        145432
#        153325
#        169010
#        189273
#        214872
#        220394
#        234493
#        241484
#        260904
#
# Disc length: 3827 seconds
#
# Revision: 0
# Processed by: cddbd v1.5.2PL0 Copyright (c) Steve Scherf et al.
# Submitted via: ExactAudioCopy v1.0b1
#
DISCID=080ef112
DTITLE=Anthony Phan - Stet
DYEAR=2009
DGENRE=Blues
TTITLE0=Tenegris Amicta
TTITLE1=Reggae Macabre
TTITLE2=100 Miles from Here
TTITLE3=Miss Fortune
TTITLE4=Tudo o meu ar
TTITLE5=The Present Twilight
TTITLE6=The Coming Night
TTITLE7=The Hot Dog You Gave Me
TTITLE8=Nihil sed umbra
TTITLE9=Stet
TTITLE10=Hush Baby, Hush
TTITLE11=Blues for the Disenfranchised Maya
TTITLE12=Love Without Distance
TTITLE13=Hubo un dia
TTITLE14=Colores de gris
TTITLE15=Stet in the Antiquated Future
TTITLE16=The Hot Dog You Game Me (Remix)
TTITLE17=Miss Fortune (Remix)
EXTD=
EXTT0=
EXTT1=
EXTT2=
EXTT3=
EXTT4=
EXTT5=
EXTT6=
EXTT7=
EXTT8=
EXTT9=
EXTT10=
EXTT11=
EXTT12=
EXTT13=
EXTT14=
EXTT15=
EXTT16=
EXTT17=
PLAYORDER=
